<?xml version="1.0" encoding="UTF-8"?>
<svg id="Livello_1" xmlns="http://www.w3.org/2000/svg" version="1.1" viewBox="0 0 40 40">
  <!-- Generator: Adobe Illustrator 29.8.2, SVG Export Plug-In . SVG Version: 2.1.1 Build 3)  -->
  <defs>
    <style>
      .st0 {
        fill: #fff;
      }
    </style>
  </defs>
  <path class="st0" d="M30.34,0H9.66C4.32,0,0,4.32,0,9.66v20.69c0,5.33,4.32,9.66,9.66,9.66h20.69c5.33,0,9.66-4.32,9.66-9.66V9.66c0-5.33-4.32-9.66-9.66-9.66ZM36.55,29.66c0,3.81-3.09,6.9-6.9,6.9H10.34c-3.81,0-6.9-3.09-6.9-6.9V10.34c0-3.81,3.09-6.9,6.9-6.9h19.31c3.81,0,6.9,3.09,6.9,6.9v19.31Z"/>
  <path class="st0" d="M20.02,9.66c-5.71,0-10.34,4.63-10.34,10.34s4.63,10.34,10.34,10.34,10.34-4.63,10.34-10.34-4.63-10.34-10.34-10.34ZM20.02,26.9c-3.8,0-6.9-3.1-6.9-6.9s3.1-6.9,6.9-6.9,6.9,3.1,6.9,6.9-3.1,6.9-6.9,6.9Z"/>
  <circle class="st0" cx="31.05" cy="8.97" r="2.07"/>
</svg>