<?xml version="1.0" encoding="UTF-8"?>
<svg id="Livello_1" xmlns="http://www.w3.org/2000/svg" version="1.1" viewBox="0 0 40 40">
  <!-- Generator: Adobe Illustrator 29.8.2, SVG Export Plug-In . SVG Version: 2.1.1 Build 3)  -->
  <defs>
    <style>
      .st0 {
        fill: #fff;
      }
    </style>
  </defs>
  <path class="st0" d="M38.46,4.62H1.54c-.85,0-1.54.69-1.54,1.54v26.15c0,1.7,1.38,3.08,3.08,3.08h33.85c1.7,0,3.08-1.38,3.08-3.08V6.15c0-.85-.69-1.54-1.54-1.54ZM20,20.99L5.49,7.69h29.01l-14.51,13.3ZM14.37,20L3.08,30.35V9.65l11.29,10.35ZM16.64,22.09l2.31,2.13c.59.54,1.49.54,2.08,0l2.31-2.13,11.15,10.22H5.49l11.15-10.22ZM25.63,20l11.29-10.35v20.7l-11.29-10.35Z"/>
</svg>