<?xml version="1.0" encoding="UTF-8"?>
<svg id="Livello_1" xmlns="http://www.w3.org/2000/svg" version="1.1" viewBox="0 0 40 40">
  <!-- Generator: Adobe Illustrator 29.8.2, SVG Export Plug-In . SVG Version: 2.1.1 Build 3)  -->
  <defs>
    <style>
      .st0 {
        fill: #fff;
      }
    </style>
  </defs>
  <path class="st0" d="M40,25v13.33c0,.92-.75,1.67-1.67,1.67H1.67C.75,40,0,39.25,0,38.33v-13.33C0,24.08.75,23.33,1.67,23.33s1.67.75,1.67,1.67v11.67h33.33v-11.67c0-.92.75-1.67,1.67-1.67s1.67.75,1.67,1.67ZM18.82,26.18c.65.65,1.71.65,2.36,0h0s8.33-8.33,8.33-8.33c.65-.65.65-1.71,0-2.36-.65-.65-1.71-.65-2.36,0l-5.49,5.49V1.67c0-.92-.75-1.67-1.67-1.67s-1.67.75-1.67,1.67v19.31l-5.49-5.49c-.65-.65-1.71-.65-2.36,0s-.65,1.71,0,2.36l8.33,8.33Z"/>
</svg>