<?xml version="1.0" encoding="UTF-8"?>
<svg id="Livello_1" xmlns="http://www.w3.org/2000/svg" version="1.1" viewBox="0 0 40 40">
  <!-- Generator: Adobe Illustrator 29.8.2, SVG Export Plug-In . SVG Version: 2.1.1 Build 3)  -->
  <defs>
    <style>
      .st0 {
        fill: #fff;
      }
    </style>
  </defs>
  <path class="st0" d="M19.33.01C9.04.34.54,8.68.03,18.97c-.19,3.71.63,7.21,2.22,10.26L.01,39.23c-.09.45.31.85.76.76l10.01-2.23h0c3.02,1.58,6.49,2.4,10.17,2.23,10.27-.48,18.63-8.91,19.03-19.18C40.43,9.16,30.95-.37,19.33.01ZM20,35.86c-2.91,0-5.63-.79-7.98-2.16-.22-.12-.43-.26-.64-.39l-6.39,1.7,1.7-6.39c-1.61-2.48-2.55-5.44-2.55-8.62,0-8.74,7.12-15.86,15.86-15.86s15.86,7.12,15.86,15.86-7.12,15.86-15.86,15.86Z"/>
  <path class="st0" d="M28.72,24.88l-3.15-1.05c-.86-.29-1.41-.16-1.78.21l-.84.84c-.41.41-1.06.48-1.56.17-.73-.46-1.89-1.33-3.49-2.94-1.6-1.6-2.48-2.77-2.94-3.49-.32-.5-.25-1.14.17-1.56l.84-.84c.37-.37.5-.91.21-1.78l-1.05-3.15c-.29-.87-1.33-1.22-2.1-.7-.41.28-.8.57-1.27,1.04-1.02,1.02-1.53,2.43-1.38,3.86.26,2.57,1.67,6.21,4.81,9.34,3.13,3.13,6.78,4.54,9.34,4.81,1.43.15,2.84-.37,3.86-1.38.46-.46.75-.85,1.03-1.27.53-.77.18-1.81-.69-2.1Z"/>
</svg>